<?xml version="1.0" standalone="no"?><!DOCTYPE svg PUBLIC "-//W3C//DTD SVG 1.1//EN" "http://www.w3.org/Graphics/SVG/1.1/DTD/svg11.dtd"><svg t="1660261281715" class="icon" viewBox="0 0 1024 1024" version="1.1" xmlns="http://www.w3.org/2000/svg" p-id="1294" xmlns:xlink="http://www.w3.org/1999/xlink" width="200" height="200"><defs><style type="text/css"></style></defs><path d="M569.6 1010.56a81.92 81.92 0 0 1-57.6-23.68L28.16 481.28C13.44 465.92 0 448 77.44 128A97.92 97.92 0 0 1 155.52 53.76C473.6 0 488.32 12.16 503.04 27.52l483.2 505.6a92.16 92.16 0 0 1-12.16 128l-332.8 320a104.96 104.96 0 0 1-71.68 29.44zM81.92 442.24l476.8 499.2a17.28 17.28 0 0 0 10.88 3.84 40.96 40.96 0 0 0 26.88-12.16l332.16-320c13.44-12.8 16.64-30.08 10.24-37.12L461.44 78.72a1827.84 1827.84 0 0 0-294.4 39.68 32.64 32.64 0 0 0-26.24 24.96 1930.24 1930.24 0 0 0-58.88 298.88z" p-id="1295"></path><path d="M351.36 439.04a111.36 111.36 0 1 1 111.36-110.72 111.36 111.36 0 0 1-111.36 110.72z m0-156.16a45.44 45.44 0 1 0 45.44 45.44 45.44 45.44 0 0 0-45.44-45.44z" p-id="1296"></path></svg>